<?xml version="1.0" encoding="UTF-8"?>
<svg id="Layer_1" data-name="Layer 1" xmlns="http://www.w3.org/2000/svg" viewBox="0 0 1547 291.9">
  <path d="M165,3.5c-8,5-27.3,14.7-36.1,18.3-4.3,1.6-11.4,3.8-16,4.7-15.4,3.1-36.4,.4-49.2-6.4-2.9-1.5-5.5-2.8-5.9-3-.7-.4-8.8,11.2-8.8,12.6,0,1.3,10,5.6,20.5,8.8,8,2.4,10.6,2.8,24,2.8,13.1,.1,16-.2,22.5-2.2,8.9-2.8,26.7-11.2,36.4-17,3.7-2.3,6.9-4.2,7-4.2,0,0,.2,6.4,.3,14.3,.5,27.6,3.3,41.1,12.2,58.8,8.2,16.2,18.4,30.9,21.5,30.9,.6,0,2.8-2.7,4.9-6l3.9-6-6.2-6.7c-13.4-14.8-18.1-24.9-21.5-45.8-2-12.2-3.8-38-3.3-48.8,.1-4.8,.1-8.7-.2-8.6-.3,0-3,1.6-6,3.5Z"/>
  <path d="M220.4,18.6c-1.7,15.9,1.5,36.2,7.5,48.1,5.4,10.8,19.4,26.4,34.8,38.9l6.1,5.1-8.1,2.7c-13.3,4.5-31.8,12.7-40.3,18-9.8,6-27.9,23.9-35.2,34.9-2.9,4.3-5.2,8.4-5.2,9.1,0,1.1,10.6,4.5,14.3,4.5,.8,0,2.3-1.9,3.3-4.2,5.8-13,16.1-24.7,28.1-31.9,14.9-9,50.4-24.4,61.3-26.6,1.7-.3,2.9-.9,2.8-1.3-.2-.3-5.1-4.8-10.9-9.8-20.2-17.4-32.5-32.4-37.9-46.3-5.3-13.9-7.3-32.3-4.4-42.5,.5-1.9-.1-2.3-6-3.8-9.6-2.4-9.3-2.5-10.2,5.1Z"/>
  <path d="M622.5,22c-4.5,1.3-10.5,6.7-12.6,11.3-3.9,8.7-1.5,19.5,5.7,25.4,14.6,12,36.4,2.2,36.4-16.3,0-14.9-14.4-24.9-29.5-20.4Z"/>
  <path d="M1399.5,22.4c-2.2,.8-5.9,3.4-8.1,5.8-8.3,8.7-7.9,21.3,.9,29.4,5.5,5.1,10.3,6.7,17.9,6,10.3-.9,18.3-8.4,19.5-18.4,1.9-16.3-14.2-28.5-30.2-22.8Z"/>
  <path d="M1307.7,24.5c-.4,.4-.7,46.1-.7,101.6v100.8h41l-.2-101.3-.3-101.2-19.6-.3c-10.7-.1-19.8,.1-20.2,.4Z"/>
  <path d="M394,57.4v19.5h-18l.2,17.7,.3,17.8,8.7,.3,8.7,.3,.3,45.7c.3,39.5,.6,46.4,2.1,50.7,3.1,9.5,10.8,16.2,21.5,19,6.9,1.9,29.2,3.1,38.5,2.1l6.7-.8-.2-16.5-.3-16.6-8.5-.1c-10.2-.2-14.5-2.1-17.5-8.1-1.9-3.7-2-6.3-2.3-39.7l-.3-35.7,14.8-.3,14.8-.3v-35l-14.7-.3-14.8-.3V37.9h-40v19.5Z"/>
  <path d="M1478,57.4v19.5h-18v36h18v44.5c0,28.2,.4,46.3,1.1,49.5,2.3,10.9,11.4,19.4,23.6,21.9,7.4,1.6,30.3,2.6,37.6,1.7l5.7-.7v-33.4h-8.2c-10,0-14-1.5-17-6.4-2.3-3.5-2.3-4.2-2.6-40.4l-.3-36.7h29.1v-36h-29V37.9h-40v19.5Z"/>
  <path d="M23.1,81.6c5.3,26.4,6.4,48.2,2.9,61.4-3.8,14.6-11.6,28.5-21,37.3l-5,4.7,4.6,5.7c2.5,3.1,5,5.8,5.4,6,.7,.3,8.8-8.6,14.7-16.3,4.3-5.7,9.9-16.1,12.3-23.1,4.4-12.6,4.2-32.8-.4-55.4-1.3-6.3-2.2-11.6-2.1-11.7,.1-.2,4.8,1.3,10.5,3.2,13.6,4.6,28.4,8.1,39.5,9.5,10.6,1.3,24,.2,40.6-3.5,9.5-2.1,20.9-6,20.9-7.2,0-.8-9.2-11.8-9.9-11.8-.3,0-4.1,1.5-8.4,3.3-13.6,5.7-21.8,7.4-32.8,6.8-16.3-1-41.2-6.6-62.6-14-5.6-2-10.4-3.6-10.6-3.6-.3,0,.4,3.9,1.4,8.7Z"/>
  <path d="M766.8,77c-13.2,1.4-26.2,6.7-33.3,13.6l-3.5,3.4v-14.1h-40v195h40v-62.2l4.7,4.2c5.5,4.8,16.4,10.2,24.2,12,2.9,.7,10.2,1.2,16.2,1.2,29.7-.1,52.7-13.7,64.8-38.4,6.5-13.1,8.4-21.8,8.3-38.3,0-16.5-1.9-25.3-8.2-38.2-7.2-14.6-17.6-24.8-32.5-31.9-11-5.3-27.1-7.8-40.7-6.3Zm10.2,35.9c19.7,3.7,32,19.3,32,40.5,0,13-4.6,24.4-13,32.3-1.4,1.3-5.4,3.8-9,5.5-6.2,3.1-7,3.2-18.5,3.2-10.8,0-12.5-.3-17.5-2.6-15.9-7.5-24.5-25.5-22-45.8,2.3-17.7,13.7-30.3,30-33,7.7-1.2,11.9-1.3,18-.1Z"/>
  <path d="M1195,76.6c-13,1-28.2,6.9-35.8,13.8l-4.2,3.7v-14.2h-39v195h39v-31c0-17.1,.2-31,.4-31s2,1.6,4.1,3.5c4.9,4.4,15.6,10,23.1,12,7,1.9,24.2,2.2,33,.6,26.8-4.9,48.1-24.7,55.4-51.6,3.3-12.1,3.8-30.2,1.1-42.9-6.9-33.7-32.6-55.8-67.1-57.8-3.6-.2-8.1-.2-10-.1Zm9.2,36.8c16.1,3.4,27.3,15.8,29.7,33,1.1,7.9,.1,17.9-2.5,24.7-4.1,10.5-13.6,19.4-24.3,22.4-8.5,2.5-22.9,1.6-30.8-2-13.9-6.3-22.3-20.8-22.3-38.6,0-12.8,3.8-22.9,11.3-30.1,5.1-5.1,10.2-7.7,18.1-9.4,8-1.8,12.7-1.8,20.8,0Z"/>
  <path d="M568.6,78.6c-13.2,2.8-21.2,6.9-30.3,15.7l-4.3,4v-18.4h-40V226.9h40v-36c0-38,.4-42.6,4.7-51.7,3-6.2,11-14.1,18.1-17.7,5.6-2.9,17-5.6,23.3-5.6h3.9v-39l-4.2,.1c-2.4,0-7.4,.7-11.2,1.6Z"/>
  <path d="M1001,78.4c-15.1,3-29.1,9.5-34.9,16.1-6.7,7.7-8.6,13.7-8.6,28.4,0,11.4,.2,13,2.6,18,2.9,6.2,10.6,14.2,17.7,18.3,8,4.6,27.9,10,45.7,12.2,10.7,1.3,17.4,4.1,19,7.8,1.6,4,.8,7.1-2.8,10.7-4.1,4-9.4,5.4-19.2,5.2-12.9-.2-28.4-5-40.8-12.5-2.6-1.6-5-2.7-5.3-2.5-.2,.3-4.9,6.5-10.4,13.8-8,10.6-9.7,13.6-8.8,14.7,2.2,2.7,17.4,11.4,25.1,14.3,15.3,6,23.5,7.4,41.7,7.3,18.1,0,26.6-1.6,37.5-6.9,17.8-8.8,26.4-26.2,23.5-47.7-1.8-13-7.4-21.5-19.1-29-4.7-3.1-14.4-5.8-36.7-10.3-12.3-2.4-23.6-5.1-25.1-5.8-6.9-3.6-6.5-11.6,.7-15.3,10.6-5.3,26.1-3.7,44.1,4.8,6.7,3.1,11.5,4.9,12.1,4.3,.5-.5,5.2-6.5,10.4-13.4l9.6-12.5-2.7-2.3c-5.3-4.4-15.9-10.2-24.1-13.2-15.7-5.7-36.3-7.5-51.2-4.5Z"/>
  <path d="M610,153.4v73.5h40V79.9h-40v73.5Z"/>
  <path d="M1388,153.4v73.5h40V79.9h-40v73.5Z"/>
  <path d="M93,129.4c-3.6,1.2-6.4,2.7-6.3,3.2,1.1,5.3,1.3,22.3,.4,28.8-2,14.1-16.3,39.6-36,64.3-4.5,5.7-8.1,10.5-7.9,10.6,.2,.2,6.8,1.3,14.8,2.5,18.2,2.6,33,6.2,42.7,10.2,8.4,3.5,20.7,12.2,27.1,19.2,5.1,5.6,11.7,15.6,13.4,20.3,.7,1.9,1.7,3.4,2.3,3.4,1.7,0,12.8-3.9,13.7-4.8,1.1-1.1-7.8-15.7-14.6-24.1-5.3-6.6-14.3-14.5-21.7-18.9-8.9-5.3-25.9-10.2-46-13l-11.6-1.7,9.1-12.1c16.3-21.7,22.1-33.1,26.2-51.4,4.2-18.7,5.3-39.1,2-38.9-.6,0-4,1.1-7.6,2.4Z"/>
  <path d="M120.4,180.3c-.3,.7-.4,4.3-.2,8.1l.3,6.7,9.5,2.4c5.2,1.3,13.3,4.2,18,6.5,7.3,3.5,10,5.5,19.1,14.7,11.7,11.9,21.7,24.4,32.1,40.2,3.9,5.8,7.1,10.6,7.3,10.8s3.5-5.9,7.4-13.4c9.1-17.4,16.7-28.9,25.2-37.9,11.7-12.3,30.4-21.5,46.5-23l7.4-.7v-15.8l-4.7,.7c-10.3,1.3-24.2,5.5-34.1,10.4-8.6,4.1-11.8,6.4-18.2,12.7-8.6,8.5-16.7,20.4-24.6,35.9l-5.2,10.3-2.5-4.3c-5.3-8.9-20.8-28.5-28.8-36.3-11.7-11.3-33.8-23.9-48.4-27.8-4.5-1.1-5.7-1.2-6.1-.2Z"/>
</svg>